<?xml version="1.0" encoding="UTF-8"?>
<svg width="256" height="256" viewBox="0 0 256 256" xmlns="http://www.w3.org/2000/svg">
  <rect width="256" height="256" fill="#000000"/>
  <path d="M67.312 213.932L86.902 202.076C91.268 209.767 95.167 216.119 103.96 216.119C112.383 216.119 117.485 212.833 117.485 201.541V118.607H141.278V202.076C141.278 227.331 127.158 239.119 104.893 239.119C85.238 239.119 73.45 228.803 67.312 213.932" fill="#FFFFFF"/>
  <path d="M152.379 211.354L171.969 200.091C178.174 209.9 186.267 217.259 200.72 217.259C212.775 217.259 220.868 211.09 220.868 202.479C220.868 192.08 212.775 188.593 199.525 182.992L192.916 180.168C172.461 171.503 159.274 160.507 159.274 137.86C159.274 117.128 174.858 101.544 199.525 101.544C217.244 101.544 230.023 108.149 239.354 124.735L220.868 136.937C215.931 128.272 210.593 124.785 199.525 124.785C188.257 124.785 181.318 131.724 181.318 140.389C181.318 151.056 188.257 154.543 200.514 159.608L207.123 162.433C231.059 172.564 244.247 183.161 244.247 206.477C244.247 231.338 224.596 240.539 201.481 240.539C179.035 240.539 161.316 229.408 152.379 211.354" fill="#FFFFFF"/>
</svg>